<svg aria-hidden="true" style="position:absolute;width:0;height:0;overflow:hidden" xmlns="http://www.w3.org/2000/svg"><defs><symbol id="close-black" viewBox="0 0 32 32"><path d="M26.67 7.3 24.7 5.33l-7.81 7.81-7.8-7.8L7.1 7.3l7.8 7.81-7.8 7.8 1.97 1.98 7.8-7.8 7.82 7.8 1.97-1.97-7.81-7.8 7.8-7.82z"/></symbol><symbol id="client-6" viewBox="0 0 57 32"><path d="M28.5 14.62a1.58 1.58 0 0 1-.33-1.06v-1.54c0-.47.11-.83.32-1.08s.59-.36 1.1-.36c.5 0 .84.1 1.05.31.22.27.33.6.3.92v.36h-.87v-.41c0-.11 0-.22-.03-.32a.35.35 0 0 0-.12-.2.5.5 0 0 0-.32-.09.53.53 0 0 0-.33.09.41.41 0 0 0-.14.24c-.03.1-.04.22-.04.34V13.72c-.01.18.03.36.11.52.05.06.1.1.18.13a.48.48 0 0 0 .23.03c.1 0 .22-.02.3-.08a.38.38 0 0 0 .13-.23c.02-.1.03-.22.03-.34v-.41h.88v.34c.02.34-.08.68-.3.97-.2.23-.55.34-1.05.34s-.89-.12-1.1-.37zm3.64.01c-.22-.24-.33-.58-.33-1.05v-1.61c0-.46.1-.8.33-1.04s.6-.35 1.1-.35c.52 0 .9.12 1.11.35.22.23.34.58.34 1.04v1.61c0 .46-.12.81-.34 1.05s-.6.36-1.1.36c-.51 0-.89-.12-1.11-.36zm1.52-.38a.9.9 0 0 0 .1-.48v-1.98a.88.88 0 0 0-.1-.47.4.4 0 0 0-.18-.13.47.47 0 0 0-.17-.03h-.06a.47.47 0 0 0-.24.03.42.42 0 0 0-.17.13.85.85 0 0 0-.1.47v1.99c-.02.16.02.33.1.48.05.05.11.09.18.11s.15.05.23.05c.07 0 .15-.02.22-.05a.54.54 0 0 0 .19-.11v-.01zm2.08-3.62h.94l.7 2.98.73-2.98h.92l.1 4.3h-.68l-.08-3-.7 3h-.54l-.72-3-.07 3h-.69l.09-4.3zm4.44 0h1.47c.84 0 1.27.4 1.27 1.22 0 .78-.45 1.17-1.34 1.17h-.5v1.91h-.9v-4.3zm1.25 1.84a.7.7 0 0 0 .27-.02.65.65 0 0 0 .23-.12.7.7 0 0 0 .13-.49v-.04c0-.13-.01-.24-.05-.36v.01a.3.3 0 0 0-.06-.11.39.39 0 0 0-.11-.09.93.93 0 0 0-.36-.07H41.08v1.29h.35zm2.8-1.85h.97l1 4.31h-.85l-.2-.99h-.87l-.2 1h-.86l1-4.31zm.82 2.82-.33-1.8-.34 1.8h.67zM47 10.63h.63l1.22 2.45v-2.45h.75v4.3H49l-1.22-2.56v2.56H47v-4.3zm4.36 2.66-1-2.66h.84l.62 1.71.58-1.7h.83l-1 2.65v1.64h-.87V13.3zM29.9 16.82v.22h-.73v1.75h-.31v-1.75h-.75v-.22h1.8zm2.32 1.97h-.24a.1.1 0 0 1-.06-.02.1.1 0 0 1-.04-.04l-.22-.47h-1.02l-.22.47a.13.13 0 0 1-.03.05.1.1 0 0 1-.06.02h-.25l.9-1.98h.32l.92 1.97zm-1.5-.73h.86l-.37-.8a1.28 1.28 0 0 1-.06-.18v-.01l-.04.1-.03.09-.36.8zm3.06.54h.17a1 1 0 0 0 .16-.03h-.01c.05 0 .1-.02.14-.03h-.01l.12-.05v-.44h-.37a.06.06 0 0 1-.02 0 .08.08 0 0 1-.02-.02l-.02-.02a.03.03 0 0 1 0-.01v-.16h.7v.76a1.3 1.3 0 0 1-.37.16 1.59 1.59 0 0 1-.23.04 2.63 2.63 0 0 1-.27.01h-.01a1.4 1.4 0 0 1-.46-.07h.01a1.09 1.09 0 0 1-.36-.2c-.1-.1-.18-.2-.23-.32s-.09-.25-.09-.4v-.02c0-.14.03-.28.09-.4a.9.9 0 0 1 .23-.31c.1-.1.23-.16.36-.2.14-.05.3-.08.47-.08h.02c.09 0 .17 0 .26.02h-.01c.08 0 .15.02.22.05a1.12 1.12 0 0 1 .33.18l-.08.12a.07.07 0 0 1-.03.03.1.1 0 0 1-.04 0 .11.11 0 0 1-.06-.01.9.9 0 0 1-.1-.05h.01a.69.69 0 0 0-.12-.05 1.03 1.03 0 0 0-.16-.04 1.35 1.35 0 0 0-.23-.02h-.02c-.12 0-.24.02-.34.06a.76.76 0 0 0-.26.15.7.7 0 0 0-.17.25.92.92 0 0 0 0 .66.76.76 0 0 0 .45.4c.11.03.23.05.35.04zm2.9-.03h.98v.22h-1.3v-1.97h.32v1.75zm2.01.22h-.3v-1.97h.3v1.97zm1.15-1.96c.02 0 .04.02.05.03l1.32 1.5V16.8h.27v1.98h-.22a.2.2 0 0 1-.05-.05l-1.32-1.48v1.53h-.26v-1.97H39.83zm3.93-.01v.21h-1.1v.66h.89v.2h-.9v.68h1.1v.22h-1.41v-1.97h1.42zM11.29 4.62l13.75 3.37V19.8L11.3 16.44V4.62zM10.4 3.6V17l15.53 3.8V7.42L10.4 3.62z"/><path d="M18.72 27.04 3.2 23.23V9.83l15.52 3.8v13.4zM10.66 4.46 24.24 7.8l-5.77 5L4.89 9.44l5.77-4.99zm-.25-.85L3.2 9.83l15.51 3.8 7.2-6.22-15.52-3.8zm9.19 22.67 6.33-5.46-6.33-1.56v7.02z"/></symbol><symbol id="client-5" viewBox="0 0 57 32"><path d="M14.27 23.86c.13.15.2.33.2.52v.04c0 .12-.03.23-.07.33v-.01a.83.83 0 0 1-.24.3 1.4 1.4 0 0 1-.88.24h-1.55v-3.3h1.52c.3-.02.6.05.84.21a.73.73 0 0 1 .3.62c0 .19-.06.36-.18.5a.84.84 0 0 1-.46.27c.2.03.4.13.52.28zm-1.81-.5h.64c.15.01.3-.03.42-.1a.4.4 0 0 0 .1-.15.35.35 0 0 0 .04-.15v-.06c0-.05-.02-.1-.04-.15a.41.41 0 0 0-.1-.14.67.67 0 0 0-.43-.12h-.64v.87zm1.12 1.27a.4.4 0 0 0 .12-.15.37.37 0 0 0 .03-.16v-.05a.38.38 0 0 0-.03-.17.42.42 0 0 0-.12-.15.72.72 0 0 0-.45-.12h-.68v.91h.7c.15 0 .3-.03.43-.11zm3.8.65-.85-1.3h-.32v1.3h-.72v-3.3h1.37c.35-.02.69.08.96.28a1 1 0 0 1 .1 1.37c-.17.17-.4.3-.66.33l.9 1.32h-.78zm-1.17-1.74h.6c.4 0 .61-.17.61-.5V23a.44.44 0 0 0-.03-.17.5.5 0 0 0-.12-.17.69.69 0 0 0-.46-.14h-.6v1zm5.13 1.07H19.9l-.25.67h-.76L20.2 22h.82l1.32 3.27h-.76l-.25-.67zm-.2-.5-.52-1.39-.53 1.4h1.06zm5.17 1.17h-.72l-1.62-2.25v2.25h-.72v-3.3h.72l1.62 2.26v-2.26h.72v3.3zm4.11-.8a1.5 1.5 0 0 1-.65.6c-.32.14-.66.2-1.01.2h-1.29v-3.3h1.29c.35-.01.7.06 1 .2.28.13.51.33.66.58a1.8 1.8 0 0 1 0 1.73zm-.82-.07a1.15 1.15 0 0 0 0-1.58c-.25-.2-.58-.3-.9-.28h-.5v2.14h.5c.32.02.65-.08.9-.28zm-7.8-20.8s9.3 3.21 9.1 7.87v7.87s-9.3-3.22-9.1-7.87V3.6zm17.38 13.9c1.76-1.11 3.8-1.8 5.91-2v-2.46a11.95 11.95 0 0 0-5.9 4.45z"/><path d="M38.13 18.25a12.32 12.32 0 0 1 6.96-5.72v-7.1s-13.24 4.58-12.96 11.2v11.21s.59-.2 1.51-.59c0-.36 0-.72.05-1.08a11.35 11.35 0 0 1 4.44-7.92z"/><path d="M36.87 22.4c.07-.84.24-1.62.48-2.36l-.02.07a10.37 10.37 0 0 0-2.8 6.77c.75-.33 1.62-.74 2.54-1.23a10.4 10.4 0 0 1-.2-3.29v.05zm.52.05a9.8 9.8 0 0 0 .18 3l-.01-.06c3.62-1.99 7.68-5.05 7.53-8.75v-.33c-2.59.27-5 1.3-6.89 2.95-.44 1.02-.71 2.1-.8 3.19z"/></symbol><symbol id="client-4" viewBox="0 0 57 32"><path d="M12.88 11.25c-1.28 0-2.32.92-2.32 2.06 0 1.14 1.04 2.06 2.32 2.06 1.28 0 2.31-.92 2.31-2.06 0-1.14-1.03-2.06-2.31-2.06zm17.1-.65c-.01-1.58-.72-3.1-1.97-4.21s-2.96-1.75-4.74-1.75c-1.78 0-3.48.63-4.74 1.75s-1.96 2.63-1.96 4.2v8.71s13.4-1.32 13.4-8.7zM5.86 22.16c0 1.1.5 2.15 1.37 2.93s2.05 1.21 3.29 1.22c1.24 0 2.42-.44 3.3-1.22s1.36-1.83 1.36-2.93V16.1s-9.32.93-9.32 6.06zm4.66 1.09c-.24 0-.48-.07-.68-.19s-.35-.29-.45-.48a1.01 1.01 0 0 1 .26-1.18c.18-.16.4-.26.63-.3s.48-.02.7.06c.23.08.42.22.56.4s.2.39.2.6c0 .15-.03.3-.1.42h.01c-.06.13-.15.25-.26.35s-.25.18-.4.24c-.14.05-.3.08-.47.08zm9.43-.6h-.9v.93h-.47V21.3h1.48v.38h-1.01v.6h.9v.37zm2.25-.16c0 .23-.04.42-.12.6s-.2.29-.34.38a.93.93 0 0 1-.5.14c-.2 0-.36-.05-.51-.14s-.26-.22-.34-.38a1.34 1.34 0 0 1-.13-.58v-.12c0-.22.04-.42.12-.59a.9.9 0 0 1 .85-.53c.19 0 .36.05.5.14.15.09.27.22.35.4.08.16.12.36.12.58v.1zm-.47-.1c0-.24-.05-.42-.13-.55s-.2-.18-.37-.18a.42.42 0 0 0-.36.18.95.95 0 0 0-.13.54v.11c0 .23.04.41.13.54s.2.2.36.2c.16 0 .28-.07.37-.19.08-.12.12-.3.13-.54v-.11zm2 .6a.24.24 0 0 0-.1-.21 1.2 1.2 0 0 0-.34-.15c-.16-.05-.3-.1-.39-.16-.25-.14-.38-.33-.38-.56 0-.12.03-.23.1-.33s.17-.17.3-.23c.13-.05.27-.08.44-.08.16 0 .3.03.43.1.13.05.23.13.3.24.07.1.1.23.1.37h-.47c0-.1-.03-.19-.1-.25s-.15-.08-.27-.08c-.12 0-.2.02-.27.07a.23.23 0 0 0-.1.19c0 .07.04.14.12.19.07.05.18.1.33.14.26.08.46.18.58.3s.18.26.18.44c0 .2-.07.35-.22.46a.98.98 0 0 1-.6.17c-.18 0-.34-.03-.48-.1-.15-.06-.26-.15-.33-.26s-.12-.24-.12-.39h.47c0 .25.15.38.45.38.12 0 .2-.02.27-.07.06-.04.09-.1.09-.19zm2.5-1.3h-.7v1.89h-.47v-1.9h-.7v-.38h1.86v.38zm1.63.9h-.9v.61h1.06v.38H26.5V21.3h1.52v.38h-1.05v.55h.9v.36zm1.27.16h-.37v.83h-.47V21.3h.85c.27 0 .47.06.62.18s.22.3.22.51a.7.7 0 0 1-.1.39.69.69 0 0 1-.3.25l.48.93v.02h-.5l-.43-.83zm-.37-.38h.38c.12 0 .2-.03.27-.1.07-.05.1-.14.1-.24 0-.1-.03-.2-.1-.25-.05-.07-.15-.1-.27-.1h-.38v.69zm2.84.4v.8h-.47V21.3h.9c.16 0 .31.03.44.1s.23.15.3.26c.07.12.1.25.1.4 0 .22-.07.4-.22.52a.95.95 0 0 1-.64.2h-.4zm0-.37h.42c.12 0 .22-.03.28-.1s.1-.13.1-.24c0-.11-.03-.2-.1-.27s-.15-.1-.27-.1h-.43v.7zm2.97.2h-.9v.6h1.05v.38h-1.52V21.3h1.52v.38h-1.05v.55h.9v.36zm2.17-.92h-.7v1.9h-.46v-1.9h-.7v-.38h1.86v.38zm1.64.91h-.9v.61h1.06v.38h-1.53V21.3h1.52v.38H37.5v.55h.9v.36zm1.27.16h-.37v.83h-.47V21.3h.85c.27 0 .47.06.62.18s.22.3.22.51c0 .16-.04.29-.1.39s-.17.19-.3.25l.48.93v.02h-.5l-.43-.83zm-.37-.38h.38c.12 0 .2-.03.27-.1.07-.05.1-.14.1-.24 0-.1-.03-.2-.1-.25-.05-.07-.15-.1-.27-.1h-.38v.69zm2.75.61a.24.24 0 0 0-.09-.2 1.2 1.2 0 0 0-.34-.15c-.16-.05-.29-.1-.38-.16-.26-.14-.4-.33-.4-.56 0-.12.04-.23.11-.33s.17-.17.3-.23c.13-.05.28-.08.44-.08.16 0 .3.03.43.1.13.05.23.13.3.24.07.1.1.23.1.37h-.47c0-.1-.03-.19-.1-.25s-.15-.08-.27-.08c-.12 0-.2.02-.27.07a.23.23 0 0 0-.1.19c0 .07.04.14.12.19.07.05.18.1.33.14.26.08.46.18.58.3s.18.26.18.44c0 .2-.07.35-.22.46a.99.99 0 0 1-.6.17c-.18 0-.34-.03-.48-.1a.68.68 0 0 1-.44-.65h.47c0 .25.15.38.45.38.11 0 .2-.02.26-.07.06-.04.1-.1.1-.19z"/></symbol><symbol id="client-3" viewBox="0 0 57 32"><path d="M19.42 26.19a.07.07 0 0 1 .04.02l.12.1a.95.95 0 0 1-.33.22c-.13.05-.28.07-.43.07h-.05c-.15 0-.3-.02-.43-.07h.01a.94.94 0 0 1-.33-.2c-.09-.09-.16-.2-.2-.3s-.08-.25-.08-.39v-.02c0-.14.03-.28.08-.4v.01a.91.91 0 0 1 .22-.3c.1-.1.22-.16.35-.2.13-.05.28-.08.44-.08h.04a1.13 1.13 0 0 1 .7.24l-.1.12a.08.08 0 0 1-.02.02.06.06 0 0 1-.03.01.1.1 0 0 1-.05-.01l-.05-.03-.08-.04a.68.68 0 0 0-.09-.04.93.93 0 0 0-.13-.03.99.99 0 0 0-.17-.02h-.02a.93.93 0 0 0-.32.06.74.74 0 0 0-.24.15.68.68 0 0 0-.17.23.78.78 0 0 0-.06.3v.02c0 .12.02.22.06.32.04.08.1.16.16.23a.68.68 0 0 0 .24.15.87.87 0 0 0 .3.05h.02l.17-.01c.1-.01.18-.04.26-.09a.86.86 0 0 0 .12-.08.09.09 0 0 1 .05-.01zm3.36-.56v.01a.97.97 0 0 1-.08.39c-.05.1-.12.21-.22.3s-.22.15-.35.2a1.38 1.38 0 0 1-.89 0h.01a1.03 1.03 0 0 1-.34-.2.9.9 0 0 1-.22-.31 1.02 1.02 0 0 1 0-.79.94.94 0 0 1 .22-.3c.1-.1.21-.16.34-.2a1.36 1.36 0 0 1 .9 0h-.01c.12.04.24.11.34.2a.9.9 0 0 1 .3.7zm-.3 0v-.02c0-.1-.03-.2-.06-.3a.65.65 0 0 0-.16-.23.68.68 0 0 0-.24-.15 1 1 0 0 0-.65 0 .68.68 0 0 0-.24.15.63.63 0 0 0-.16.23.92.92 0 0 0 0 .64.64.64 0 0 0 .16.23c.06.07.15.12.24.15a1.03 1.03 0 0 0 .65 0 .7.7 0 0 0 .24-.15.66.66 0 0 0 .16-.24.81.81 0 0 0 .05-.3v-.01zm2.59.33.03.07.03-.07a.94.94 0 0 1 .04-.07l.74-1.17.04-.04H26.24v1.9h-.26v-1.53l-.75 1.2a.11.11 0 0 1-.04.04.13.13 0 0 1-.07.01h-.04a.13.13 0 0 1-.07-.01.1.1 0 0 1-.04-.04l-.77-1.2v1.53h-.25v-1.9h.28c.02 0 .03.02.04.04l.76 1.17.04.07zm2.8-.1v.72h-.3v-1.9h.68c.12 0 .24 0 .35.04h-.01c.09.02.18.06.25.12a.5.5 0 0 1 .15.18c.03.08.05.16.05.25s-.02.17-.06.24a.54.54 0 0 1-.15.2.74.74 0 0 1-.26.12 1.2 1.2 0 0 1-.33.04h-.37zm0-.2h.36c.08 0 .15-.01.22-.03a.48.48 0 0 0 .16-.08.34.34 0 0 0 .1-.12.36.36 0 0 0 .03-.16v-.03a.31.31 0 0 0-.03-.13.38.38 0 0 0-.1-.13.62.62 0 0 0-.4-.1h-.34v.78zm3.9.92h-.23a.11.11 0 0 1-.06-.01.12.12 0 0 1-.04-.05l-.2-.46h-.99l-.2.46a.1.1 0 0 1-.04.04.1.1 0 0 1-.06.02h-.23l.87-1.9h.3l.88 1.9zm-1.43-.7h.82l-.35-.78a1.2 1.2 0 0 1-.06-.17v-.01l-.04.1a.73.73 0 0 1-.03.08l-.34.77zm2.7-1.2.03.04 1.28 1.44v-1.49h.26v1.91h-.21a.15.15 0 0 1-.05-.04l-1.27-1.44v1.48h-.26v-1.9H33.03zm3.71 1.14v.76h-.29v-.76l-.8-1.15h.26a.1.1 0 0 1 .06.02l.04.04.5.75a1.32 1.32 0 0 1 .09.17l.04-.09a.58.58 0 0 1 .05-.09l.5-.74a.2.2 0 0 1 .03-.04.1.1 0 0 1 .06-.02h.26l-.8 1.16zm-11.82-4.35.38.04c1.96-.77 3.62-2.02 4.77-3.6s1.74-3.4 1.7-5.28l-2.17-1.88c.44 2 .24 4.05-.59 5.94s-2.25 3.55-4.1 4.78z"/><path d="m24.15 21.38.06.01c1.98-1.22 3.48-2.94 4.32-4.92s.99-4.13.4-6.18L25.85 7.6c1.25 2.2 1.75 4.66 1.45 7.1s-1.4 4.75-3.15 6.67zm10.45-6.54a9.62 9.62 0 0 1-3.63 5.28c-.53.4-1.1.76-1.72 1.07 1.5-.38 2.86-1.05 4-1.97s2.04-2.04 2.6-3.3l-1.25-1.08z"/><path d="m34.1 14.54-1.77-1.55c-.03 1.77-.61 3.49-1.67 4.99s-2.56 2.73-4.35 3.56c.43 0 .84-.02 1.25-.07h-.05c1.67-.59 3.15-1.53 4.3-2.74s1.94-2.65 2.3-4.2zm-9.69-8.05L22.3 4.63c-1.9.64-3.53 1.75-4.68 3.21s-1.77 3.18-1.78 4.95c0 1.95.76 3.84 2.15 5.38s3.32 2.63 5.5 3.1c1.95-2.06 3.09-4.6 3.25-7.26s-.64-5.3-2.32-7.54zm14.6 7.76c0-2.31-1.07-4.53-2.95-6.17s-4.44-2.56-7.1-2.57c-1.24 0-2.46.2-3.61.59l12.99 11.28c.45-1 .67-2.06.67-3.13z"/></symbol><symbol id="client-2" viewBox="0 0 57 32"><path d="M26.73 3.16h-1.34c-2.06.13-3.97.64-5.7 1.48l.09-.04-.23.11v11.81l.54-.18a17.86 17.86 0 0 1 5.8-1.02h.01v1.55c-.2 0-.4 0-.6.02h.04-.05c-1.21.06-2.35.25-3.44.53l.12-.02c-1.5.38-2.82.9-4.04 1.58l.08-.04V3.79c1.2-.7 2.58-1.29 4.04-1.66l.11-.03a15.5 15.5 0 0 1 3.91-.5h.24a11.32 11.32 0 0 1 2.82.37l-.09-.02v1.53a11.5 11.5 0 0 0-1.85-.29h-.07l-.39-.02zm2.69 1.56a16.84 16.84 0 0 0 5.28-.52l-.13.04a16.9 16.9 0 0 0 4.05-1.6l-.09.05v14.88c-1.2.7-2.58 1.29-4.04 1.66l-.11.03c-1.17.31-2.52.5-3.91.5h-.1a12 12 0 0 1-2.96-.37l.09.02V4.44a11.44 11.44 0 0 0 1.92.28zm7.57.12-.54.18c-.33.12-.83.28-1.34.41l-.16.04c-1.35.36-2.89.57-4.48.58-.36 0-.68-.01-1-.03l-.43-.03v12.15l.37.03a14.37 14.37 0 0 0 4.68-.43l-.1.02c1.07-.27 1.98-.61 2.85-1.03l-.08.04.23-.11V4.84zM19.06 24.27a.8.8 0 0 0-.27-.18.77.77 0 0 0-.3-.06h-.04a.9.9 0 0 0-.34.07.81.81 0 0 0-.27.17.79.79 0 0 0-.17.27.87.87 0 0 0-.06.33v2.03c0 .15.02.29.08.42.05.1.12.2.2.27a.72.72 0 0 0 .28.14c.09.03.2.04.3.04.12 0 .23-.02.33-.07a.87.87 0 0 0 .27-.18.88.88 0 0 0 .17-.27.8.8 0 0 0 .07-.32v-.23h-.53v.19c0 .06-.01.12-.03.17a.32.32 0 0 1-.08.11.34.34 0 0 1-.1.06.38.38 0 0 1-.12.02.27.27 0 0 1-.25-.11.48.48 0 0 1-.07-.25v-1.92c0-.11.03-.2.07-.3a.28.28 0 0 1 .1-.09.27.27 0 0 1 .16-.02c.1 0 .18.04.23.1v.01c.06.07.1.16.1.26V25.11h.52v-.2a.96.96 0 0 0-.07-.36.82.82 0 0 0-.18-.28zm3.14-.02a.93.93 0 0 0-.6-.22.9.9 0 0 0-.32.06.84.84 0 0 0-.27.16.85.85 0 0 0-.2.28.93.93 0 0 0-.08.38v1.96c0 .13.02.27.07.4.05.1.12.19.2.26.09.08.18.14.29.17a.94.94 0 0 0 .31.06.9.9 0 0 0 .33-.06h-.01a.85.85 0 0 0 .48-.44.92.92 0 0 0 .08-.37v-1.98a.94.94 0 0 0-.08-.38.88.88 0 0 0-.2-.28zm-.24 2.62v.03a.35.35 0 0 1-.1.25.39.39 0 0 1-.5 0 .35.35 0 0 1-.11-.25v-2.01c0-.1.04-.18.1-.25a.39.39 0 0 1 .5 0c.07.07.1.16.1.25v1.98zm4.37.86v-3.67h-.5L25.14 26l-.68-1.94h-.5v3.67h.52V25.5h.01l.52 1.58h.26l.52-1.58v2.23h.53zm2.98-3.41a.73.73 0 0 0-.29-.2 1.15 1.15 0 0 0-.36-.06h-.8v3.67h.52V26.3h.27a.96.96 0 0 0 .47-.1.77.77 0 0 0 .29-.28.87.87 0 0 0 .12-.32c.02-.12.03-.25.03-.39v-.09c0-.17-.02-.33-.06-.48v.01a.79.79 0 0 0-.19-.33zm-.27 1.12c0 .07-.02.13-.05.2v-.01a.3.3 0 0 1-.13.13.52.52 0 0 1-.22.04h-.27v-1.25H28.67a.5.5 0 0 1 .21.05c.06.03.1.08.12.13.03.07.05.14.05.21v.5zm2.75-1.38h-.43l-.8 3.67h.52l.15-.79h.72l.15.8h.52l-.83-3.68zm-.48 2.38.26-1.33.26 1.33h-.52zm3.87-.17h-.01l-.8-2.21h-.5v3.67h.53v-2.2l.8 2.2h.5v-3.67h-.52v2.21zm3.2-2.21-.43 1.46-.43-1.46h-.55l.72 2.12v1.55h.52v-1.55l.72-2.12h-.56zM17.6 28.77h.25v.7h.17v-.7h.25v-.14h-.67v.14zm2.12-.14-.33.85h.18l.07-.2h.34l.08.2h.18l-.34-.85h-.18zm-.02.51.11-.32.12.32h-.23zm2.12.02h.2v.11a.33.33 0 0 1-.2.08h-.02a.22.22 0 0 1-.17-.09.36.36 0 0 1-.06-.2v-.02c0-.19.08-.28.25-.28h.01c.04 0 .08 0 .1.03.04.02.07.06.08.1l.17-.03c-.04-.17-.16-.25-.37-.25a.43.43 0 0 0-.3.1.42.42 0 0 0-.12.3v.06c0 .11.05.22.11.3.04.04.1.07.15.1l.15.02h.04a.52.52 0 0 0 .35-.13v-.34h-.37v.14zm2.14-.54h-.17v.86h.6v-.15h-.43v-.7zm1.81 0h-.17v.86h.17v-.86zm1.77.57-.35-.57h-.16v.86h.16v-.56l.34.56h.17v-.86h-.16v.57zm1.6-.09h.43v-.14h-.43v-.19h.46v-.14h-.63v.85h.65v-.15h-.48v-.23zm3.88-.14h-.33v-.33h-.17v.85h.17v-.37h.33v.37h.17v-.85h-.17v.33zm1.61.14h.43v-.14h-.43v-.19h.46v-.14h-.63v.85h.65v-.15h-.48v-.23zm2.18 0c.15-.02.23-.1.23-.23v-.03a.2.2 0 0 0-.08-.16.48.48 0 0 0-.22-.05H36.34v.85h.17v-.36h.05l.1.02.06.06.18.28h.2l-.1-.17a.6.6 0 0 0-.18-.2zm-.17-.12h-.12v-.2h.13l.04-.01c.05 0 .1 0 .14.02.02.02.03.05.03.08v.01a.11.11 0 0 1-.04.09.47.47 0 0 1-.15.02h-.03zm1.82.12h.43v-.14h-.43v-.19h.46v-.14h-.63v.85h.65v-.15h-.48v-.23z"/></symbol><symbol id="client-1" viewBox="0 0 55 32"><path d="m19.61 3.61 3.62 3.43h-6.71v16.6h17.55V17.3l3.61 3.42V3.62H19.61zm14.3 13.28L23.65 7.2h10.26v9.7zm-3.19 4.33H19.3V10.04h.81v10.42h10.62v.76zM22 25.86l-.42.87-.42-.87h-.35l.61 1.16v.67h.32v-.67l.62-1.16h-.36zm.53 1.83.15-.42h.71l.15.42h.34l-.7-1.83h-.28l-.7 1.83h.33zm.5-1.44.27.76h-.53l.27-.76zm1.69.72a.42.42 0 0 0-.07.23c0 .15.05.28.16.38s.26.14.44.14.34-.05.47-.15l.1.12h.36l-.27-.31c.1-.15.16-.33.16-.56h-.27c0 .12-.03.24-.08.34l-.35-.42.12-.1a.68.68 0 0 0 .2-.19.4.4 0 0 0 .05-.2c0-.12-.04-.22-.13-.3s-.2-.12-.33-.12c-.14 0-.26.05-.35.13s-.13.2-.13.34c0 .06.01.12.04.18s.08.14.15.23c-.13.1-.22.18-.27.25zm.83.4a.47.47 0 0 1-.3.1c-.08 0-.16-.02-.21-.07s-.08-.13-.08-.21c0-.1.05-.19.15-.26l.04-.03.4.47zm-.33-.81c-.09-.1-.13-.2-.13-.27 0-.06.02-.1.05-.15s.08-.06.14-.06c.06 0 .1.02.14.05s.05.08.05.12c0 .08-.02.13-.07.18l-.04.03-.14.1zm2.99 1c.12-.11.2-.27.21-.46h-.32c-.01.13-.05.22-.12.28s-.15.08-.28.08c-.14 0-.24-.05-.31-.15s-.1-.26-.1-.46v-.16c0-.2.03-.35.1-.45s.19-.15.33-.15c.11 0 .2.03.27.09s.1.15.11.28h.32c-.02-.2-.1-.35-.21-.46s-.29-.17-.5-.17c-.14 0-.28.04-.4.11s-.2.17-.25.3-.1.29-.1.46v.17c0 .17.04.32.1.45a.67.67 0 0 0 .64.4c.21 0 .38-.06.5-.17zm1.87-.26c.06-.14.1-.3.1-.48v-.1c0-.18-.04-.33-.1-.47s-.16-.24-.27-.3c-.12-.08-.25-.12-.4-.12s-.28.04-.4.11c-.11.08-.2.18-.26.32s-.1.3-.1.47v.1c0 .18.03.34.1.47s.15.24.27.31c.11.07.25.11.4.11.14 0 .28-.04.4-.1s.2-.19.26-.32zm-.34-1.04c.07.11.11.27.11.47v.1c0 .2-.03.36-.11.47s-.19.16-.33.16-.25-.06-.32-.17-.12-.26-.12-.46v-.11c0-.2.04-.35.12-.46s.18-.16.32-.16.25.05.33.16z"/></symbol><symbol id="instagram" viewBox="0 0 32 32"><path d="M31.98 9.41a11.7 11.7 0 0 0-.75-3.88 7.83 7.83 0 0 0-1.85-2.84A7.88 7.88 0 0 0 26.6.86l-.05-.02C25.53.45 24.37.18 22.66.1c-1.7-.08-2.25-.1-6.6-.1s-4.89.02-6.6.1C7.77.16 6.6.43 5.59.83a7.83 7.83 0 0 0-2.84 1.85A7.9 7.9 0 0 0 .92 5.47l-.02.05C.5 6.54.23 7.7.16 9.4c-.08 1.72-.1 2.26-.1 6.6s.02 4.9.09 6.6c.08 1.7.35 2.87.74 3.89a7.92 7.92 0 0 0 1.85 2.83c.78.8 1.73 1.42 2.78 1.83l.06.02c1.02.4 2.18.67 3.88.74 1.7.08 2.25.1 6.6.1s4.89-.02 6.6-.1a11.7 11.7 0 0 0 3.88-.74 8.24 8.24 0 0 0 4.66-4.63l.02-.06c.4-1.01.67-2.18.74-3.88.08-1.7.1-2.25.1-6.6s0-4.88-.08-6.6zm-2.89 13.07a8.78 8.78 0 0 1-.55 2.97 5.34 5.34 0 0 1-3 3.02l-.04.02c-.56.22-1.4.48-2.97.55-1.68.07-2.2.1-6.46.1s-4.78-.03-6.47-.1a8.78 8.78 0 0 1-2.97-.55 4.92 4.92 0 0 1-1.83-1.2 4.99 4.99 0 0 1-1.19-1.8v-.03a8.81 8.81 0 0 1-.56-2.97c-.07-1.7-.1-2.2-.1-6.47s.03-4.78.1-6.46c.07-1.57.33-2.41.55-2.97.26-.7.66-1.33 1.2-1.84a4.98 4.98 0 0 1 1.8-1.19h.04A8.81 8.81 0 0 1 9.61 3c1.69-.07 2.2-.1 6.47-.1s4.78.03 6.46.1c1.56.07 2.4.33 2.97.55.7.26 1.33.67 1.84 1.2.53.52.94 1.14 1.2 1.84.21.56.47 1.4.54 2.97.08 1.68.1 2.19.1 6.46s-.02 4.77-.1 6.46z"/><path d="M16.06 7.78a8.22 8.22 0 1 0 0 16.45 8.22 8.22 0 0 0 0-16.45zm0 13.56a5.33 5.33 0 1 1 0-10.67 5.33 5.33 0 0 1 0 10.67zM26.53 7.46a1.92 1.92 0 1 1-3.84 0 1.92 1.92 0 0 1 3.84 0z"/></symbol><symbol id="linkedin" viewBox="0 0 32 32"><path d="M32 32V20.28c0-5.75-1.23-10.17-7.94-10.17-3.23 0-5.4 1.77-6.28 3.45h-.1v-2.91h-6.36V32h6.63V21.43c0-2.8.53-5.48 3.98-5.48 3.4 0 3.45 3.17 3.45 5.65V32H32zM.53 10.65h6.63V32H.53V10.64zM3.84 0C1.72 0 0 1.72 0 3.84s1.72 3.88 3.84 3.88S7.7 5.97 7.7 3.84A3.85 3.85 0 0 0 3.84 0z"/></symbol><symbol id="facebook" viewBox="0 0 32 32"><path d="M21.33 5.31h2.93V.23C23.76.15 22.02 0 20 0c-4.21 0-7.1 2.65-7.1 7.52V12H8.25v5.7h4.65V32h5.7V17.7h4.46l.7-5.7H18.6V8.08c0-1.64.44-2.77 2.73-2.77z"/></symbol><symbol id="twitter" viewBox="0 0 32 32"><path d="M32 6.08c-1.18.52-2.45.87-3.77 1.03A6.52 6.52 0 0 0 31.1 3.5a13.1 13.1 0 0 1-4.16 1.59 6.58 6.58 0 0 0-11.2 5.98A18.57 18.57 0 0 1 2.23 4.2a6.57 6.57 0 0 0 2.02 8.77 6.49 6.49 0 0 1-2.97-.81v.07a6.6 6.6 0 0 0 5.26 6.45 6.55 6.55 0 0 1-2.96.1 6.62 6.62 0 0 0 6.13 4.57 13.1 13.1 0 0 1-8.13 2.8h-.01c-.54 0-1.05-.02-1.57-.09a18.47 18.47 0 0 0 10.07 2.95c12.07 0 18.67-10 18.67-18.68 0-.29 0-.57-.02-.84A13.1 13.1 0 0 0 32 6.08z"/></symbol><symbol id="astronaut" viewBox="0 0 32 32"><path fill="#2196f3" style="fill:var(--color3, #2196f3)" d="M31.98 4.53a.54.54 0 0 0-.43-.37l-1.91-.27-.86-1.74c-.18-.36-.78-.36-.95 0l-.86 1.74-1.91.27a.54.54 0 0 0-.43.36.53.53 0 0 0 .13.55l1.39 1.35-.33 1.9c-.03.2.05.4.21.53a.53.53 0 0 0 .32.1c.09 0 .17-.02.25-.06l1.7-.9 1.71.9a.54.54 0 0 0 .78-.57l-.33-1.9 1.38-1.35a.53.53 0 0 0 .14-.55zm-2.46 1.32a.53.53 0 0 0-.17.38l.01.1.2 1.1-1-.52a.52.52 0 0 0-.26-.06.54.54 0 0 0-.25.06l-1 .53.2-1.12a.5.5 0 0 0 0-.09.53.53 0 0 0-.16-.38l-.8-.79 1.11-.16a.53.53 0 0 0 .4-.29l.5-1.01.5 1c.08.17.23.28.4.3l1.12.16-.8.8zm-3.38 14.68h-1.07v1.06h1.07v-1.07zm0 2.13h-1.07v1.06h1.07v-1.06zm1.06-1.07h-1.06v1.07h1.06v-1.07zm-2.13 0H24v1.07h1.07v-1.07zm-2.67 4.8h-1.06v1.07h1.06v-1.07zm0 2.14h-1.06v1.06h1.06v-1.06zm1.07-1.07H22.4v1.07h1.07v-1.07zm-2.13 0h-1.07v1.07h1.07v-1.07zM16 24.26h-1.07v1.07H16v-1.07zm0 2.13h-1.07v1.07H16v-1.07zm1.07-1.07H16v1.07h1.07v-1.07zm-2.14 0h-1.06v1.07h1.06v-1.07zM5.87 6.13H4.8V7.2h1.07V6.12zm0 2.14H4.8v1.06h1.07V8.26zM6.93 7.19H5.87v1.07h1.06V7.19zm-2.13 0H3.73v1.07H4.8V7.19z"/><path fill="#212121" style="fill:var(--color4, #212121)" d="M24.72 14.16c-.29-.39-.71-.64-1.19-.7-.48-.07-.96.05-1.34.35l-1.25.96-1.9 1.42-1.36-.55A6.94 6.94 0 0 0 14.83 2.4a6.96 6.96 0 0 0-6.96 6.93c0 1.39.42 2.68 1.12 3.76l-2.77-.02H6.2a.55.55 0 0 0-.16.04h-.03l-.02.01-3.24 1.6-1.9.91a.43.43 0 0 0-.06.04 1.78 1.78 0 0 0 1 3.26c.3 0 .58-.07.84-.2l1.4-.74 2.25-1.17 1.36-.01L2.2 22.2.86 23.55a1.65 1.65 0 0 0 0 2.36 1.67 1.67 0 0 0 2.36 0l1.31-1.31 1.74-1.3.9.9-1.76 1.75-1.34 1.33a1.65 1.65 0 0 0 0 2.36 1.67 1.67 0 0 0 2.36 0l3.48-3.47 1.01-1 .02-.02 5.17-5.66 3.47.5h.07c.07 0 .13-.01.2-.04l.04-.02.06-.03 3.21-2.13c.02 0 .02-.02.03-.03l.04-.03 1.28-1.19c.66-.62.75-1.63.2-2.36zM2.13 17.77a.71.71 0 0 1-.56.05.72.72 0 0 1-.42-.35.71.71 0 0 1 .21-.9l1.31-.64.45 1.31-.99.53zm3.5-1.83-1.55.8-.44-1.28 2.03-1-.04 1.48zm15.1-6.62a5.8 5.8 0 0 1-.6 2.56l-4.18-1.9a1.86 1.86 0 0 0-.79-1.38l1.46-4.86a5.88 5.88 0 0 1 4.11 5.58zm-11.8 0a5.89 5.89 0 0 1 6.65-5.81l-1.43 4.75h-.06a1.87 1.87 0 1 0 0 3.73c.7 0 1.3-.38 1.62-.95l3.86 1.76A5.9 5.9 0 0 1 8.94 9.32zm5.97.8a.8.8 0 0 1-1.62 0 .8.8 0 0 1 1.62 0zM2.46 25.15a.6.6 0 0 1-.85 0 .6.6 0 0 1 0-.84l.96-.96.85.85-.96.95zm3.22 3.73a.6.6 0 0 1-.86 0 .6.6 0 0 1 0-.84l.97-.96.85.85-.96.95zm3.48-3.47L7.4 27.19l-.86-.85 1.77-1.76c.04-.04.06-.09.09-.13l.02-.04.03-.13.01-.08c0-.03 0-.07-.02-.1l-.01-.1a.55.55 0 0 0-.1-.14l-.02-.03-1.61-1.6-.06-.04a.5.5 0 0 0-.08-.06.51.51 0 0 0-.1-.04.5.5 0 0 0-.1-.02.5.5 0 0 0-.1.01.53.53 0 0 0-.1.02.48.48 0 0 0-.1.04c-.01.02-.04.02-.05.03L4.23 23.5l-.9-.9 2.4-2.38 4.36 4.28-.93.92zm6.82-7.01h-.17.01a.54.54 0 0 0-.09.03.54.54 0 0 0-.18.1l-.04.04-4.7 5.14-4.33-4.26 2.84-2.81c.2-.21.2-.55 0-.76a.53.53 0 0 0-.38-.16l-2.22.02.03-1.61 3.1.02a6.95 6.95 0 0 0 6.26 1.98c.04.04.08.07.13.09l2.41.96.33 1.64-3-.43zm4.04.18-.31-1.56 1.45-1.08.94 1.25-2.08 1.39zm3.76-2.84-.84.79-.93-1.24.83-.64a.73.73 0 0 1 .54-.14.72.72 0 0 1 .4 1.23z"/><path fill="#212121" style="fill:var(--color4, #212121)" d="m13.6 18.55-2.14-2.14a.53.53 0 0 0-.75 0l-2.15 2.14a.53.53 0 0 0-.15.37c0 .15.05.28.15.38l2.15 2.14a.54.54 0 0 0 .75 0l2.14-2.14a.53.53 0 0 0 .16-.38.54.54 0 0 0-.16-.37zm-2.52 1.75L9.7 18.93l1.38-1.38 1.4 1.38-1.4 1.38zm6.09-15.23-.26 1.04c.07.01 1.74.45 1.74 2.15h1.06c0-2.02-1.66-2.97-2.54-3.19zm2.54 4.25h-1.06v1.07h1.06V9.32z"/></symbol><symbol id="diagram" viewBox="0 0 32 32"><path fill="#2196f3" style="fill:var(--color3, #2196f3)" d="M14.93 14.97h1.06v4.8h-1.06v-4.8zm4.26 2.13h1.07v2.66h-1.07V17.1zm-8.53 1.6h1.07v1.06h-1.07V18.7zm-3.2-.53h1.07v1.6H7.46v-1.6z"/><path fill="#212121" style="fill:var(--color4, #212121)" d="M1.6 28.3h25.59c.88 0 1.6-.72 1.6-1.6v-2.14c0-.88-.72-1.6-1.6-1.6h-.53V9.66l3.02-2.86a1.6 1.6 0 1 0-.74-.76L26.66 8.2V6.97c0-.88-.72-1.6-1.6-1.6H3.73c-.88 0-1.6.72-1.6 1.6v16H1.6c-.88 0-1.6.7-1.6 1.6v2.12c0 .89.72 1.6 1.6 1.6zM30.39 4.83a.53.53 0 1 1 0 1.06.53.53 0 0 1 0-1.06zM3.19 6.97c0-.3.25-.53.54-.53h21.33c.3 0 .53.24.53.53v2.24l-1.07 1.01V8.04c0-.3-.23-.54-.53-.54H4.8c-.29 0-.52.24-.52.54v13.32c0 .3.23.54.53.54H24c.28 0 .52-.24.52-.54V11.7l1.07-1.01v12.28H3.19v-16zM8 13.9a1.6 1.6 0 1 0 1.11 2.75l1.86.93a.53.53 0 0 0 .63-.12l3.94-4.44 3.87 2.9a.54.54 0 0 0 .7-.03l3.36-3.2v8.14H5.33V8.57h18.13v2.66l-3.77 3.57-3.91-2.93a.53.53 0 0 0-.72.07l-4 4.5-1.48-.75.02-.19c0-.89-.72-1.6-1.6-1.6zm.54 1.6a.53.53 0 1 1-1.07 0 .53.53 0 0 1 1.07 0zm3.2 8.53h5.33v.53c0 .3-.24.54-.53.54h-4.27a.53.53 0 0 1-.53-.54v-.53zm-10.66.53c0-.3.24-.53.53-.53h9.06v.53c0 .89.72 1.6 1.6 1.6h4.27c.88 0 1.6-.71 1.6-1.6v-.53h9.06c.3 0 .53.24.53.53v2.14c0 .29-.24.53-.53.53H1.59a.53.53 0 0 1-.53-.53v-2.14z"/></symbol><symbol id="clock" viewBox="0 0 32 32"><path fill="#212121" style="fill:var(--color4, #212121)" d="M31.3 15.3A15.3 15.3 0 1 0 11.34 29.9a.68.68 0 0 0 .53-.07.64.64 0 0 0 .28-.35l3.87-12.26a1.91 1.91 0 1 0-.85-3.63l-5.1-5.1a.64.64 0 0 0-.9 0 .64.64 0 0 0 0 .9l5.1 5.1c-.39.8-.17 1.77.54 2.31l-3.69 11.68a14.04 14.04 0 1 1 10.66-.39l-.08.04-.4-1.88a.64.64 0 0 0-1.05-.34l-3.84 3.42a.64.64 0 0 0-.05.9c.08.09.17.15.28.19l4.9 1.56c.34.11.7-.07.8-.4a.64.64 0 0 0 .04-.2c0-.05 0-.1-.02-.14l-.39-1.84A15.26 15.26 0 0 0 31.3 15.3zM16 14.67a.64.64 0 1 1 0 1.27.64.64 0 0 1 0-1.27zm2.1 14.86 2.18-1.95.6 2.84-2.78-.89z"/><path fill="#2196f3" style="fill:var(--color3, #2196f3)" d="M15.36 3.19v1.27a.64.64 0 1 0 1.27 0V3.2a.64.64 0 0 0-1.27 0zM3.88 14.67a.64.64 0 0 0 0 1.27h1.27a.64.64 0 1 0 0-1.27H3.88zm24.23 1.27a.64.64 0 1 0 0-1.27h-1.27a.64.64 0 0 0 0 1.27h1.27z"/></symbol><symbol id="antenna" viewBox="0 0 32 32"><path fill="#212121" style="fill:var(--color4, #212121)" d="m30.78 22.1-8.45-8.5.94-4.62a2.16 2.16 0 1 0-1.37-2.04v.03c0 .25.05.5.13.73V7.7l-4.97.6L8.97.16A.53.53 0 0 0 8.6 0a.53.53 0 0 0-.38.15l-1.5 1.5a.53.53 0 0 0 0 .76l.8.83a14.94 14.94 0 0 0 2.53 17.66c.04.05.09.08.14.1a2.99 2.99 0 0 0-.05.55v6.19h-6.4a2.67 2.67 0 0 0-2.67 2.66v1.07c0 .3.24.53.53.53h24.54c.3 0 .53-.24.53-.53V30.4c0-1.47-1.2-2.66-2.66-2.66h-6.4v-2.75a14.79 14.79 0 0 0 10.17-1.5l-.08.04.81.82a.53.53 0 0 0 .38.16.53.53 0 0 0 .37-.15l1.52-1.5a.53.53 0 0 0 0-.76zm-7.5-15.87a1.07 1.07 0 1 1 .76 1.83 1.07 1.07 0 0 1-.75-1.83zm-1.25 3.5-.6 2.96-1.18-1.19 1.78-1.76zm-.6-.9-1.93 1.92-1.49-1.5 3.41-.41zM24 28.8c.88 0 1.6.72 1.6 1.6v.54H2.14v-.54c0-.88.71-1.6 1.6-1.6H24zm-7.47-2.13v1.07H11.2v-1.07h5.34zM11.2 25.6v-4.05c0-1.3 1.2-2.35 2.66-2.35s2.67 1.05 2.67 2.35v4.05h-5.33zm6.4-1.7v-2.35c0-1.88-1.68-3.42-3.74-3.42h-.06a3.8 3.8 0 0 0-3.21 1.78v.01A13.87 13.87 0 0 1 8.3 4.03l18.6 18.71a13.64 13.64 0 0 1-9.4 1.15l.1.02zm11.29-.68L7.84 2.04l.75-.75 7.94 7.98 13.12 13.2-.75.75z"/><path fill="#2196f3" style="fill:var(--color3, #2196f3)" d="M13.88 20.27a1.6 1.6 0 0 0-.01 3.2 1.6 1.6 0 0 0 0-3.2zm.37 1.98a.53.53 0 0 1-.37.15.53.53 0 0 1-.54-.53.53.53 0 0 1 .53-.53c.3 0 .53.24.53.53a.53.53 0 0 1-.15.38z"/></symbol><symbol id="telefon" viewBox="0 0 20 32"><path d="M17.01 0h-14a3 3 0 0 0-3 3v26.02a3 3 0 0 0 3 3h14a3 3 0 0 0 3-3V3a3 3 0 0 0-3-3zm-14 2h14a1 1 0 0 1 1 1v21.01h-16v-21a1 1 0 0 1 1-1zm14 28.02h-14a1 1 0 0 1-1-1v-3h16v3a1 1 0 0 1-1 1z"/></symbol><symbol id="e-mail" viewBox="0 0 43 32"><path d="M38.69 0H4a4 4 0 0 0-4 4v24a4 4 0 0 0 4 4H38.7a4 4 0 0 0 4-4V4a4 4 0 0 0-4-4zm0 2.66c.18 0 .36.04.52.1h-.01L21.35 18.24 3.49 2.76c.15-.06.33-.1.51-.1H38.7zm0 26.68H4c-.73 0-1.33-.6-1.33-1.33V5.58l17.8 15.43a1.33 1.33 0 0 0 1.75 0l17.8-15.43v22.43c0 .73-.6 1.33-1.33 1.33z"/></symbol><symbol id="icon-email-black" viewBox="0 0 32 32"><path d="M26.67 5.33H5.33A2.66 2.66 0 0 0 2.68 8l-.01 16c0 1.47 1.2 2.67 2.67 2.67h21.33c1.46 0 2.66-1.2 2.66-2.67V8c0-1.47-1.2-2.67-2.66-2.67zM26.13 11l-9.42 5.9c-.43.26-1 .26-1.42 0L5.87 11a1.13 1.13 0 1 1 1.2-1.92L16 14.67l8.93-5.59a1.13 1.13 0 1 1 1.2 1.92z"/></symbol><symbol id="icon-check" viewBox="0 0 42 32"><path fill="#fff" style="fill:var(--color1, #fff);stroke:var(--color1, #fff)" stroke="#fff" stroke-width=".64" d="m6.26 15.2-.22-.2-3.3 3.13 11.65 11.11L38.86 5.9l-3.28-3.13-21.2 20.2-8.12-7.76z"/></symbol><symbol id="icon-send" viewBox="0 0 32 32"><path fill="#fff" style="fill:var(--color1, #fff)" d="M32 0 0 18l10.23 3.79L26 7 14 23.19h.01H14V32l5.74-6.7L27 28l5-28z"/></symbol><symbol id="icon-person-black" viewBox="0 0 32 32"><path d="M16 16a5.33 5.33 0 1 0 0-10.66A5.33 5.33 0 0 0 16 16zm0 2.67c-3.56 0-10.67 1.78-10.67 5.33v1.33c0 .74.6 1.34 1.34 1.34h18.66c.74 0 1.34-.6 1.34-1.34V24c0-3.55-7.11-5.33-10.67-5.33z"/></symbol><symbol id="icon-phone-black" viewBox="0 0 32 32"><path d="m24.88 19.77-3.27-.37a2.56 2.56 0 0 0-2.1.73l-2.37 2.37a19.36 19.36 0 0 1-8.48-8.48l2.38-2.38c.55-.55.82-1.32.73-2.1l-.37-3.25a2.57 2.57 0 0 0-2.56-2.28H6.6a2.55 2.55 0 0 0-2.57 2.67 21.86 21.86 0 0 0 20.44 20.44 2.55 2.55 0 0 0 2.67-2.57v-2.23c0-1.3-.97-2.4-2.27-2.55z"/></symbol><symbol id="icon-open-mobile-menu" viewBox="0 0 32 32"><path d="M6.4 11.73V9.6h19.2v2.13H6.4zm0 5.34h19.2v-2.14H6.4v2.14zm0 5.33h19.2v-2.13H6.4v2.13z"/></symbol><symbol id="icon-close-mobile-menu" viewBox="0 0 32 32"><path d="m23.73 10.3-1.5-1.5-5.96 5.96L10.3 8.8l-1.5 1.5 5.96 5.97-5.96 5.96 1.5 1.5 5.97-5.96 5.96 5.96 1.5-1.5-5.96-5.96 5.96-5.97z"/></symbol></defs></svg>